<?xml version="1.0" encoding="UTF-8"?>
<svg version="1.1" xmlns="http://www.w3.org/2000/svg" width="500" height="500">
<path d="M0 0 C165 0 330 0 500 0 C500 165 500 330 500 500 C335 500 170 500 0 500 C0 335 0 170 0 0 Z " fill="#090805" transform="translate(0,0)"/>
<path d="M0 0 C165 0 330 0 500 0 C500 165 500 330 500 500 C335 500 170 500 0 500 C0 335 0 170 0 0 Z M64 22 C64 137.17 64 252.34 64 371 C185.11 371 306.22 371 431 371 C431 255.83 431 140.66 431 22 C309.89 22 188.78 22 64 22 Z " fill="#010101" transform="translate(0,0)"/>
<path d="M0 0 C121.11 0 242.22 0 367 0 C367 115.17 367 230.34 367 349 C245.89 349 124.78 349 0 349 C0 233.83 0 118.66 0 0 Z M7 8 C7 118.22 7 228.44 7 342 C123.16 342 239.32 342 359 342 C359 231.78 359 121.56 359 8 C242.84 8 126.68 8 7 8 Z " fill="#CFAF6E" transform="translate(64,22)"/>
<path d="M0 0 C97.35 0 194.7 0 295 0 C295 56 295 56 284 68 C281.35550908 71.00858794 281.35550908 71.00858794 278.72265625 74.02734375 C273.21966143 80.32895914 267.55972961 86.4877546 261.875 92.625 C258.08457743 96.71790019 254.3445676 100.8420533 250.69140625 105.05859375 C244.94487045 111.65450204 239.01217369 118.08618637 233.09570312 124.52929688 C227.59842993 130.52001394 222.12270968 136.52977556 216.8125 142.6875 C213.947613 145.98646079 210.97244994 149.16937057 207.97583008 152.34790039 C198.52294345 162.38185089 190.05181977 172.7988172 182 184 C177.08712131 190.76729264 172.04684382 197.22405558 166.37890625 203.375 C163.69636182 206.33504902 161.12660108 209.37509756 158.5625 212.4375 C154.24575714 217.58107791 149.80292079 222.57587986 145.26171875 227.5234375 C143.33107495 229.63747579 141.43686868 231.77373948 139.5625 233.9375 C136.06687626 237.9670615 132.45155588 241.88322417 128.81860352 245.78881836 C126.05417859 248.735719 126.05417859 248.735719 123.92448425 252.14251709 C120.72959668 255.22617395 117.01966317 254.5225308 112.75512695 254.45410156 C111.33532532 254.45497772 111.33532532 254.45497772 109.88684082 254.45587158 C106.75361647 254.45308158 103.62133971 254.42194587 100.48828125 254.390625 C98.31781026 254.38316588 96.14733254 254.3774714 93.97685242 254.37347412 C88.2605433 254.35819196 82.54463989 254.31888758 76.82849121 254.2746582 C70.99704477 254.23376135 65.16553285 254.21547503 59.33398438 254.1953125 C47.88914454 254.15239609 36.44460599 254.0841133 25 254 C26.46179043 250.58915565 27.99731619 248.22191119 31 246 C33.9313408 245.6381348 36.47983499 245.51636945 39.40527344 245.58105469 C40.6743454 245.58482368 40.6743454 245.58482368 41.96905518 245.58866882 C43.80463726 245.5960764 45.64020012 245.61233691 47.47563934 245.63640594 C50.38530926 245.67219398 53.29379787 245.67981081 56.20367432 245.67926025 C64.47566162 245.6818829 72.74698871 245.72824203 81.01855469 245.81103516 C86.0809166 245.85973088 91.14216175 245.86941018 96.20471954 245.85544586 C98.12961981 245.85804968 100.05456248 245.8756453 101.97917938 245.90877533 C112.32552334 246.42351197 112.32552334 246.42351197 121.89050293 243.29309082 C123.91758976 241.29737269 125.43959172 239.36864641 127 237 C128.08902943 235.73679023 129.1913918 234.4848281 130.3125 233.25 C130.87582031 232.59515625 131.43914062 231.9403125 132.01953125 231.265625 C134.46605768 228.46683737 136.98076721 225.73310183 139.5 223 C143.10227637 219.08829965 146.64968832 215.13872956 150.12890625 211.1171875 C152.05322172 208.93977834 154.02195913 206.80697894 155.99902344 204.67749023 C160.01301734 200.34534712 163.96756335 195.97509913 167.75 191.4375 C168.40484375 190.65246094 169.0596875 189.86742187 169.734375 189.05859375 C170.15203125 188.37925781 170.5696875 187.69992188 171 187 C169.79936908 183.39810723 168.60185363 182.65694143 165.625 180.375 C164.71878906 179.66988281 163.81257812 178.96476563 162.87890625 178.23828125 C161.92886719 177.49964844 160.97882813 176.76101562 160 176 C158.18263578 174.5268138 156.37012831 173.04761621 154.5625 171.5625 C153.66015625 170.82257813 152.7578125 170.08265625 151.828125 169.3203125 C150.89484375 168.55460938 149.9615625 167.78890625 149 167 C146.93801828 165.31186566 144.87523632 163.62471252 142.8125 161.9375 C141.20833333 160.625 139.60416667 159.3125 138 158 C138.5834087 154.8294873 139.46910092 153.14350103 141.6953125 150.828125 C142.24276123 150.2503833 142.79020996 149.6726416 143.35424805 149.07739258 C143.93859619 148.47435303 144.52294434 147.87131348 145.125 147.25 C146.32242453 145.9890499 147.5190467 144.72733734 148.71484375 143.46484375 C149.28831543 142.86269043 149.86178711 142.26053711 150.45263672 141.64013672 C152.8016162 139.15032224 155.03560153 136.56902415 157.26953125 133.9765625 C159.43037207 131.50842377 161.65437702 129.10195991 163.875 126.6875 C167.18336914 123.06476095 170.36012358 119.38307109 173.4375 115.5625 C177.57578525 110.43542093 181.96782591 105.60084077 186.44140625 100.76953125 C188.50741713 98.53319275 190.55140812 96.28554677 192.5625 94 C193.11035156 93.3915625 193.65820312 92.783125 194.22265625 92.15625 C196.14335321 89.89748185 196.14335321 89.89748185 198.12109375 86.84375 C203.85374411 78.59758068 203.85374411 78.59758068 207.91503906 77.46679688 C212.33036061 76.96900127 216.60588512 77.36724746 221 78 C218.01002257 82.2584527 214.93149812 86.18854992 211.1875 89.8125 C208.15280839 92.76130411 205.45472305 95.81980157 202.8125 99.125 C198.14545684 104.94060491 193.10515614 110.34307868 188.0078125 115.77734375 C185.1507695 118.82538439 182.38156207 121.93860532 179.65234375 125.1015625 C177.73552575 127.30386403 175.77489305 129.46321942 173.8125 131.625 C170.00431922 135.846828 166.26871601 140.12628972 162.5625 144.4375 C162.04212158 145.04094238 161.52174316 145.64438477 160.9855957 146.26611328 C158.83565698 148.7763235 156.8356052 151.24659219 155 154 C155.5775 154.268125 156.155 154.53625 156.75 154.8125 C159.0325868 156.01719859 160.9737942 157.40798115 163 159 C163.26941406 158.4121875 163.53882813 157.824375 163.81640625 157.21875 C165.00297393 154.99442511 166.25796859 153.37253379 167.9375 151.5 C168.87335938 150.45199219 168.87335938 150.45199219 169.828125 149.3828125 C172.73628436 146.19220601 175.66692107 143.0224477 178.5949707 139.85009766 C182.7225422 135.35378058 186.69322822 130.73324794 190.64794922 126.08496094 C194.3585511 121.72908962 198.15058982 117.4563715 201.99609375 113.21875 C203.81311982 111.20691607 205.59944392 109.17339566 207.375 107.125 C211.66361163 102.20396638 216.09557766 97.41442494 220.51660156 92.61279297 C223.5368928 89.32904644 226.54732142 86.03624004 229.55957031 82.74511719 C232.8890184 79.1109816 232.8890184 79.1109816 234 78 C236.53049402 77.92686433 239.03304837 77.90752473 241.5625 77.9375 C242.62887695 77.94426758 242.62887695 77.94426758 243.71679688 77.95117188 C245.47790013 77.96299136 247.23896036 77.98092737 249 78 C244.77276366 83.0093397 240.39213343 87.81477453 235.875 92.5625 C230.57947328 98.16467481 225.46948776 103.87392862 220.50073242 109.76635742 C216.11691685 114.93491647 211.51058951 119.87636593 206.86572266 124.81005859 C203.41787491 128.47357735 200.04093031 132.17607732 196.76171875 135.9921875 C194.89701094 138.11737556 192.98179247 140.19198699 191.05932617 142.26489258 C184.31943421 149.5370926 177.90696557 157.02559648 172 165 C173.98 166.65 175.96 168.3 178 170 C181.54439534 168.52053141 183.50250579 166.57759273 186 163.6875 C189.65051127 159.52495332 193.35581736 155.42945941 197.125 151.375 C200.85198201 147.35344751 204.5186246 143.29549589 208.1015625 139.14453125 C210.13127259 136.85171059 212.21214597 134.61328835 214.30102539 132.37451172 C218.55047883 127.81987805 222.67736128 123.25060496 226.5625 118.375 C230.48843344 113.47645737 234.81223073 109.15005375 239.296875 104.765625 C242.7770955 101.20493697 245.84431604 97.3861338 248.9453125 93.49609375 C251.24866292 90.6979171 253.71921371 88.18906738 256.3203125 85.671875 C258.68518493 83.31800198 260.85424683 80.81203493 263.03125 78.28515625 C266.00028231 74.83895803 269.00460483 71.42330876 272 68 C243.95 67.67 215.9 67.34 187 67 C190.1404511 60.71909779 190.1404511 60.71909779 193 58 C196.00895711 57.52432485 198.44879345 57.36805735 201.45288086 57.43579102 C202.30374771 57.43494507 203.15461456 57.43409912 204.03126526 57.43322754 C205.87666122 57.43440139 207.7220771 57.44695248 209.56733513 57.46954536 C212.48890413 57.50419158 215.40895274 57.50699922 218.33070374 57.50120544 C225.58615488 57.49289767 232.84111337 57.53448105 240.09637451 57.58410645 C246.22762274 57.62523103 252.35797563 57.64283627 258.48935127 57.62675285 C261.36662796 57.62887985 264.24213144 57.66603431 267.11912537 57.70399475 C268.88532775 57.70235684 270.65152967 57.69898581 272.41772461 57.69360352 C273.21632904 57.71367966 274.01493347 57.7337558 274.83773804 57.75444031 C277.38014916 57.78567531 277.38014916 57.78567531 281 57 C290.55896459 46.79428198 290.55896459 46.79428198 287 8 C194.93 8 102.86 8 8 8 C8.27712002 60.99939416 8.27712002 60.99939416 8.63061523 113.99829102 C8.66223145 124.24987793 8.66223145 124.24987793 8.66810608 129.04942322 C8.67462694 132.40111233 8.70085273 135.75202505 8.73902893 139.10350037 C8.787109 143.38121778 8.80142736 147.65780927 8.79150593 151.93577182 C8.79357988 153.50404886 8.8074255 155.07236596 8.83450592 156.64041054 C9.0274462 168.35845391 9.0274462 168.35845391 6.42335701 172.51899529 C4.70095618 174.2861041 3.10122943 175.7131189 1 177 C0.67 177 0.34 177 0 177 C0 118.59 0 60.18 0 0 Z " fill="#DBC07C" transform="translate(100,61)"/>
<path d="M0 0 C20.79 0 41.58 0 63 0 C61.06722921 3.86554157 58.86599733 6.49034618 55.9375 9.5625 C52.2907372 13.45783782 48.78494697 17.40210162 45.4375 21.5625 C41.61812451 26.3077847 37.57480476 30.79014307 33.44921875 35.26953125 C31.13939418 37.84459883 28.96756987 40.48254363 26.8125 43.1875 C22.30972335 48.77383253 17.43633217 53.9706212 12.49145508 59.16674805 C8.77840174 63.07261062 5.17484739 67.04788937 1.64306641 71.1184082 C-0.69068135 73.79094816 -3.09219468 76.39390483 -5.5 79 C-8.52004872 82.2778141 -11.52204137 85.56583268 -14.4375 88.9375 C-19.51290983 94.72524805 -24.77866107 100.3435495 -30 106 C-30.33 127.12 -30.66 148.24 -31 170 C61.07 170 153.14 170 248 170 C248 150.86 248 131.72 248 112 C255 107 255 107 256 107 C256 130.43 256 153.86 256 178 C158.65 178 61.3 178 -39 178 C-39 101 -39 101 -29 91 C-27.30887434 89.08965435 -25.6177404 87.1790333 -23.95703125 85.2421875 C-21.46163218 82.38318737 -18.89026997 79.59695086 -16.3125 76.8125 C-15.7983252 76.25643066 -15.28415039 75.70036133 -14.75439453 75.12744141 C-12.16924013 72.33438717 -9.57811505 69.54706303 -6.98046875 66.765625 C-1.33993037 60.71144098 4.13759414 54.55521977 9.48901367 48.24389648 C13.4909443 43.54364239 17.63860304 38.99655319 21.8449707 34.47924805 C25.05291824 31.03347815 28.19280383 27.54339507 31.26953125 23.98046875 C34.18757096 20.64086122 37.18901052 17.37610035 40.1796875 14.1015625 C42.03676667 12.13276579 42.03676667 12.13276579 43 10 C28.81 9.67 14.62 9.34 0 9 C0 6.03 0 3.06 0 0 Z " fill="#9A7642" transform="translate(139,156)"/>
<path d="M0 0 C84.81 0 169.62 0 257 0 C257 3.3 257 6.6 257 10 C175.16 10 93.32 10 9 10 C9 48.94 9 87.88 9 128 C5.04 132.455 5.04 132.455 1 137 C0.67 137 0.34 137 0 137 C0 91.79 0 46.58 0 0 Z " fill="#E6CA86" transform="translate(119,80)"/>
<path d="M0 0 C11 0 11 0 13.61328125 1.90625 C14.17402344 2.7621875 14.73476562 3.618125 15.3125 4.5 C15.88613281 5.3353125 16.45976562 6.170625 17.05078125 7.03125 C19 10 19 10 19.86701965 12.00476074 C21.30354244 14.71097778 22.51023505 16.17735773 25 18 C31.01106564 19.22781017 36.97242607 19.07198393 43.0859375 19 C44.87099981 19.007522 46.65605048 19.018559 48.44107056 19.03295898 C53.12683691 19.06135147 57.81123444 19.04213043 62.49694824 19.01287842 C67.28321202 18.99146132 72.06923013 19.01522932 76.85546875 19.03515625 C86.23728776 19.06757627 95.61828156 19.04968068 105 19 C105 21 105 21 102.921875 23.1796875 C102.46361328 23.62022461 102.00535156 24.06076172 101.53320312 24.51464844 C93.44400857 32.35137769 85.97417369 40.85359873 78.94921875 49.64453125 C76.67183541 52.39655961 74.2169494 54.87042637 71.65625 57.35546875 C68.58540775 60.40458334 65.81734681 63.71825537 63 67 C60.91933326 69.41897473 58.83569889 71.83536283 56.75 74.25 C56.18877441 74.90000977 55.62754883 75.55001953 55.04931641 76.21972656 C51.51691201 80.29518883 47.92003557 84.29835602 44.25 88.25 C40.90472791 91.86520759 37.70583672 95.53235638 34.625 99.375 C30.57462766 104.41255986 26.22907464 109.10143711 21.80175781 113.80371094 C17.74855972 118.1320237 13.96984263 122.61656945 10.28125 127.26171875 C8.55987849 129.32795407 6.82574764 131.26957143 4.96875 133.20703125 C4.45521973 133.74569824 3.94168945 134.28436523 3.41259766 134.83935547 C2.40747276 135.88405975 1.39184221 136.91878327 0.36474609 137.94189453 C-2.27649217 140.59480039 -2.27649217 140.59480039 -3.05859375 144.11328125 C-1.69589319 146.54200586 -0.08265988 147.97939185 2.0625 149.75 C3.16271484 150.67039062 3.16271484 150.67039062 4.28515625 151.609375 C4.85105469 152.06828125 5.41695312 152.5271875 6 153 C4.74535823 156.7639253 2.85029166 158.25423244 0 161 C-6.15998981 167.5098846 -12.03106376 174.08057495 -17.44140625 181.234375 C-17.95574219 181.81703125 -18.47007813 182.3996875 -19 183 C-19.66 183 -20.32 183 -21 183 C-21.1238722 177.96469037 -21.21446514 172.93027303 -21.2746582 167.89379883 C-21.29975714 166.18172755 -21.33384429 164.46976296 -21.37719727 162.75805664 C-21.43805739 160.29286355 -21.46625432 157.82909015 -21.48828125 155.36328125 C-21.52699089 154.22080681 -21.52699089 154.22080681 -21.56648254 153.05525208 C-21.56855931 149.09385976 -21.24239761 147.29296849 -18.68530273 144.20239258 C-17.79915283 143.47560303 -16.91300293 142.74881348 -16 142 C-8.42381593 134.17127647 -1.03731108 126.24307572 5.75390625 117.71875 C9.39871123 113.30695128 13.32950572 109.16496822 17.23046875 104.98046875 C20.5739847 101.39358503 23.8000986 97.71519367 27 94 C29.1234955 91.54036407 31.24880684 89.08230424 33.375 86.625 C33.94033447 85.97152588 34.50566895 85.31805176 35.08813477 84.64477539 C39.01999123 80.10854128 43.00677933 75.62666425 47.03515625 71.17578125 C50.96803055 66.82068983 54.82074991 62.39900708 58.609375 57.91796875 C64.67984982 50.75513638 70.90102349 43.78364259 77.36743164 36.97436523 C77.92809326 36.38212158 78.48875488 35.78987793 79.06640625 35.1796875 C79.56084229 34.66132324 80.05527832 34.14295898 80.56469727 33.60888672 C82.15143458 31.83025108 83.56987384 29.90683487 85 28 C56.95 27.67 28.9 27.34 0 27 C0 18.09 0 9.18 0 0 Z " fill="#96713B" transform="translate(139,119)"/>
<path d="M0 0 C7.05958646 5.83317655 10.52330783 11.19362591 11.80078125 20.25 C12.33930581 29.65174136 9.6283689 37.20760551 3.46484375 44.34765625 C-3.94289945 51.330845 -11.10228246 52.81295779 -21.1640625 52.5546875 C-29.41578568 51.58935655 -35.1056792 47.59074908 -40.234375 41.20703125 C-45.38460768 33.64666183 -46.38674004 25.92322 -45.3984375 16.99609375 C-43.68856541 8.27401894 -37.6332971 2.77855853 -30.8828125 -2.50390625 C-21.95631873 -7.85980251 -8.18177055 -5.7454211 0 0 Z " fill="#E1C787" transform="translate(190.63671875,400.8515625)"/>
<path d="M0 0 C4.00490642 1.35377118 6.46047316 3.08538522 9.5 6 C15.35092882 11.43553055 21.62113035 16.21084865 28 21 C27.34 22.65 26.68 24.3 26 26 C25.34 26 24.68 26 24 26 C23.68095703 26.81210938 23.68095703 26.81210938 23.35546875 27.640625 C21.50975801 30.85333187 18.96016133 33.20522707 16.3125 35.75 C12.3858543 39.5985294 8.61514925 43.4775229 5.046875 47.6640625 C2.06088879 51.07173378 -1.03299174 54.37611283 -4.125 57.6875 C-4.7236084 58.32985596 -5.3222168 58.97221191 -5.93896484 59.6340332 C-7.61890365 61.43003116 -9.29853353 63.2243597 -11 65 C-12.06934532 66.27617187 -12.06934532 66.27617187 -13.16029358 67.578125 C-16.74921979 70.63898038 -18.51114309 70.60848386 -23.17700195 70.56762695 C-24.23148277 70.56872215 -24.23148277 70.56872215 -25.30726624 70.56983948 C-27.61840444 70.56637091 -29.92749762 70.52755009 -32.23828125 70.48828125 C-33.84538166 70.47895038 -35.45249634 70.47183556 -37.05961609 70.46684265 C-41.28007594 70.44779401 -45.4996691 70.39871274 -49.7197876 70.34332275 C-54.02986935 70.29208352 -58.34009179 70.2693187 -62.65039062 70.24414062 C-71.1006572 70.19059091 -79.55022065 70.10530525 -88 70 C-86.31058846 66.55136439 -84.7800726 63.71337164 -82 61 C-79.26463085 60.48218166 -77.12587287 60.27762801 -74.390625 60.29296875 C-73.66381531 60.27784744 -72.93700562 60.26272614 -72.18817139 60.24714661 C-69.87513167 60.20428432 -67.56339719 60.19543412 -65.25 60.1875 C-63.67835075 60.16435419 -62.10673252 60.13898865 -60.53515625 60.11132812 C-56.6899889 60.04849166 -52.84563542 60.01614483 -49 60 C-50.5500085 58.67583803 -52.11234043 57.36609289 -53.6796875 56.0625 C-54.54835449 55.33160156 -55.41702148 54.60070312 -56.31201172 53.84765625 C-60.29087694 51.11268332 -63.23832758 51 -68 51 C-66.63629701 48.00779732 -65.05091917 45.70973471 -62.875 43.25 C-62.33617187 42.63640625 -61.79734375 42.0228125 -61.2421875 41.390625 C-60.83226562 40.93171875 -60.42234375 40.4728125 -60 40 C-57.22977492 41.30659488 -54.82904675 42.75922085 -52.390625 44.609375 C-51.38128906 45.37121094 -51.38128906 45.37121094 -50.3515625 46.1484375 C-49.65804687 46.67695313 -48.96453125 47.20546875 -48.25 47.75 C-47.23292969 48.51957031 -47.23292969 48.51957031 -46.1953125 49.3046875 C-45.17824219 50.07425781 -45.17824219 50.07425781 -44.140625 50.859375 C-43.45871094 51.37290527 -42.77679688 51.88643555 -42.07421875 52.41552734 C-40.66648676 53.49087817 -39.27352835 54.58579358 -37.89453125 55.69775391 C-34.12898955 58.68296005 -31.47960082 60.73667775 -26.5 60.875 C-25.21609375 60.93300781 -25.21609375 60.93300781 -23.90625 60.9921875 C-22.96265625 60.99605469 -22.96265625 60.99605469 -22 61 C-21.67708984 60.19949219 -21.67708984 60.19949219 -21.34765625 59.3828125 C-19.5027221 56.12075502 -17.00243323 53.57336217 -14.4375 50.875 C-13.34846701 49.71269974 -12.25992983 48.54993473 -11.171875 47.38671875 C-10.63369141 46.81356934 -10.09550781 46.24041992 -9.54101562 45.64990234 C-3.54773489 39.23314201 2.2361128 32.62233848 8 26 C3.71 25.67 -0.58 25.34 -5 25 C-5.66 26.32 -6.32 27.64 -7 29 C-8.69528643 30.9679942 -10.40406539 32.86627152 -12.1875 34.75 C-13.17779661 35.81183523 -14.16737866 36.87433732 -15.15625 37.9375 C-15.88134766 38.71480469 -15.88134766 38.71480469 -16.62109375 39.5078125 C-19.48603384 42.60811594 -22.24454008 45.80253797 -25 49 C-29.48071284 48.15256083 -31.63834347 45.97965011 -35 43 C-33.34099372 39.07526514 -30.69223127 36.06523223 -27.9375 32.875 C-27.44652832 32.30023926 -26.95555664 31.72547852 -26.44970703 31.13330078 C-23.47583269 27.66650845 -20.44679229 24.2555968 -17.375 20.875 C-11.27971714 14.16690594 -5.65526059 7.07860707 0 0 Z " fill="#C2A163" transform="translate(228,227)"/>
<path d="M0 0 C25.31914894 0 25.31914894 0 33.4375 6.9375 C36.70678874 10.84469874 37.79591296 13.23124562 38.375 18.25 C37.71517816 24.84821843 35.20968626 30.72061486 30 35 C31.80727184 40.22321421 34.82324753 44.46658608 37.8984375 49.00390625 C41 53.68646002 41 53.68646002 41 57 C37.04 57 33.08 57 29 57 C27.49480613 54.37785672 25.99568681 51.75255792 24.5 49.125 C24.07074219 48.37863281 23.64148438 47.63226563 23.19921875 46.86328125 C22.79316406 46.14785156 22.38710937 45.43242187 21.96875 44.6953125 C21.59169922 44.03547363 21.21464844 43.37563477 20.82617188 42.69580078 C20 41 20 41 20 39 C17.03 39 14.06 39 11 39 C11 44.94 11 50.88 11 57 C7.37 57 3.74 57 0 57 C0 38.19 0 19.38 0 0 Z " fill="#E4C783" transform="translate(81,396)"/>
<path d="M0 0 C78.21 0 156.42 0 237 0 C237 2.31 237 4.62 237 7 C158.79 7 80.58 7 0 7 C0 4.69 0 2.38 0 0 Z " fill="#A07844" transform="translate(139,101)"/>
<path d="M0 0 C1.65322266 0.01740234 1.65322266 0.01740234 3.33984375 0.03515625 C4.44457031 0.04417969 5.54929687 0.05320312 6.6875 0.0625 C7.54214844 0.07410156 8.39679688 0.08570313 9.27734375 0.09765625 C9.68984375 1.309375 10.10234375 2.52109375 10.52734375 3.76953125 C13.93702378 13.69377871 17.53280729 23.50138669 21.5234375 33.20800781 C23.40868026 37.81531028 25.11303218 42.43566047 26.63696289 47.17553711 C27.17784081 48.7989957 27.81158009 50.39107055 28.46484375 51.97265625 C29.27734375 54.09765625 29.27734375 54.09765625 29.27734375 57.09765625 C25.31734375 57.09765625 21.35734375 57.09765625 17.27734375 57.09765625 C16.28734375 54.78765625 15.29734375 52.47765625 14.27734375 50.09765625 C6.35734375 49.76765625 -1.56265625 49.43765625 -9.72265625 49.09765625 C-10.38265625 51.73765625 -11.04265625 54.37765625 -11.72265625 57.09765625 C-15.68265625 57.09765625 -19.64265625 57.09765625 -23.72265625 57.09765625 C-23.08844805 51.84040408 -21.43031971 47.34517757 -19.47265625 42.47265625 C-19.15619141 41.67069824 -18.83972656 40.86874023 -18.51367188 40.04248047 C-16.8092949 35.74264506 -15.0447091 31.4741129 -13.22265625 27.22265625 C-10.50826326 20.82573677 -8.28407854 14.26090623 -6.04492188 7.68603516 C-5.61469727 6.42992432 -5.61469727 6.42992432 -5.17578125 5.1484375 C-4.91958008 4.39216064 -4.66337891 3.63588379 -4.39941406 2.85668945 C-3.31868948 0.04766324 -3.16118302 0.11338533 0 0 Z " fill="#E3C785" transform="translate(383.72265625,395.90234375)"/>
<path d="M0 0 C1.51400391 0.01740234 1.51400391 0.01740234 3.05859375 0.03515625 C4.07050781 0.04417969 5.08242188 0.05320312 6.125 0.0625 C7.29869141 0.07990234 7.29869141 0.07990234 8.49609375 0.09765625 C13.69513835 11.54661617 18.1153363 23.2254054 22.234375 35.1015625 C22.54463623 35.99439941 22.85489746 36.88723633 23.17456055 37.80712891 C23.79713589 39.60146908 24.41716378 41.39669551 25.03442383 43.19287109 C25.32341553 44.02641113 25.61240723 44.85995117 25.91015625 45.71875 C26.16748535 46.46568115 26.42481445 47.2126123 26.68994141 47.98217773 C27.46016577 50.1310809 27.46016577 50.1310809 28.59521484 52.18383789 C29.49609375 54.09765625 29.49609375 54.09765625 29.49609375 57.09765625 C25.53609375 57.09765625 21.57609375 57.09765625 17.49609375 57.09765625 C16.83609375 54.45765625 16.17609375 51.81765625 15.49609375 49.09765625 C7.24609375 49.09765625 -1.00390625 49.09765625 -9.50390625 49.09765625 C-10.16390625 51.73765625 -10.82390625 54.37765625 -11.50390625 57.09765625 C-15.46390625 57.09765625 -19.42390625 57.09765625 -23.50390625 57.09765625 C-22.95012046 50.98948162 -21.04583304 45.92125231 -18.69140625 40.28515625 C-18.34787109 39.44662109 -18.00433594 38.60808594 -17.65039062 37.74414062 C-16.95375334 36.04371829 -16.25475986 34.34425943 -15.5534668 32.64575195 C-12.12328533 24.3180469 -8.93928435 15.9231389 -5.88476562 7.45117188 C-5.59021484 6.64228516 -5.29566406 5.83339844 -4.9921875 5 C-4.59833862 3.90933228 -4.59833862 3.90933228 -4.1965332 2.79663086 C-3.12042227 0.1569918 -2.96950761 0.11581543 0 0 Z " fill="#E1C585" transform="translate(308.50390625,395.90234375)"/>
<path d="M0 0 C0.88801636 3.56851017 0.86057206 6.41730262 0 10 C-3.00817721 14.39366384 -6.56677962 18.16136676 -10.203125 22.0390625 C-13.31335401 25.43326894 -16.21252822 28.99868564 -19.125 32.5625 C-20.01119019 33.64096191 -20.01119019 33.64096191 -20.9152832 34.74121094 C-26.08694649 41.05535927 -31.0845551 47.4845613 -36 54 C-36.85931757 55.13285606 -37.71869343 56.26566792 -38.578125 57.3984375 C-42.62266753 62.48696681 -42.62266753 62.48696681 -46 68 C-13 68 20 68 54 68 C54 70.97 54 73.94 54 77 C16.05 77 -21.9 77 -61 77 C-59.17379407 72.43448518 -57.51028963 69.83965138 -54.5 66.0625 C-50.8248279 61.39899551 -47.29212057 56.66819844 -43.875 51.8125 C-40.43909937 46.95187684 -36.88555974 42.23839391 -33.125 37.62109375 C-31.04929865 35.06080771 -29.0116429 32.47464856 -26.98193359 29.87792969 C-24.66297848 26.91202838 -22.33162002 23.95594758 -20 21 C-19.22398437 20.01386719 -18.44796875 19.02773437 -17.6484375 18.01171875 C-3.22887199 0 -3.22887199 0 0 0 Z " fill="#9C7A45" transform="translate(323,220)"/>
<path d="M0 0 C1.74023438 0.08701172 1.74023438 0.08701172 3.515625 0.17578125 C4.68609375 0.22089844 5.8565625 0.26601562 7.0625 0.3125 C8.40054688 0.39951172 8.40054688 0.39951172 9.765625 0.48828125 C6.140625 6.36328125 6.140625 6.36328125 2.765625 7.48828125 C2.06845299 8.80592058 1.40553509 10.14190192 0.765625 11.48828125 C-0.8190918 13.28417969 -0.8190918 13.28417969 -2.68359375 15.09765625 C-3.36744141 15.77054688 -4.05128906 16.4434375 -4.75585938 17.13671875 C-5.82803711 18.17699219 -5.82803711 18.17699219 -6.921875 19.23828125 C-15.03784501 27.15116397 -22.29847275 35.47309354 -29.31640625 44.36328125 C-29.94933594 45.06453125 -30.58226562 45.76578125 -31.234375 46.48828125 C-31.894375 46.48828125 -32.554375 46.48828125 -33.234375 46.48828125 C-33.49089844 47.07480469 -33.74742187 47.66132813 -34.01171875 48.265625 C-35.34611396 50.69141054 -36.77922828 52.16356826 -38.796875 54.05078125 C-42.05484675 57.21431903 -44.95519186 60.50840912 -47.796875 64.05078125 C-50.3206908 67.19584401 -52.82988856 70.19111995 -55.734375 72.98828125 C-59.45657713 76.58213158 -62.60760792 80.57097479 -65.84765625 84.59765625 C-68.22807982 87.48065697 -70.70117282 90.23906958 -73.234375 92.98828125 C-77.31852074 97.42537786 -81.14233581 102.01313103 -84.92578125 106.70703125 C-88.20515995 110.65782251 -91.67444711 114.41436828 -95.16796875 118.17578125 C-97.34807137 120.50630816 -97.34807137 120.50630816 -99.234375 123.48828125 C-102.59033328 122.88900299 -104.61238726 121.64205689 -107.234375 119.48828125 C-105.57356826 115.34129714 -102.57439767 112.42133367 -99.546875 109.23828125 C-98.44851851 108.06575973 -97.35085776 106.89258606 -96.25390625 105.71875 C-95.72748535 105.15720215 -95.20106445 104.5956543 -94.65869141 104.01708984 C-90.80824197 99.88415971 -87.16005695 95.574906 -83.49609375 91.27734375 C-77.91540749 84.73667499 -72.27954026 78.27570275 -66.46875 71.9375 C-63.93718628 69.16251669 -61.4658136 66.34057702 -59.00390625 63.50390625 C-56.98322544 61.20220361 -54.92124882 58.94063746 -52.859375 56.67578125 C-49.67677712 53.15817307 -46.64319538 49.56081074 -43.671875 45.86328125 C-40.997913 42.55442706 -38.28714243 39.45037242 -35.234375 36.48828125 C-32.30262739 33.64259276 -29.71675122 30.68483605 -27.171875 27.48828125 C-22.55936014 21.73070152 -17.55205869 16.39597607 -12.46264648 11.05859375 C-11.84462158 10.40890625 -11.22659668 9.75921875 -10.58984375 9.08984375 C-9.99896973 8.47359131 -9.4080957 7.85733887 -8.79931641 7.22241211 C-7.05418327 5.3657597 -7.05418327 5.3657597 -5.20703125 2.53125 C-3.234375 0.48828125 -3.234375 0.48828125 0 0 Z " fill="#D7BE7B" transform="translate(283.234375,138.51171875)"/>
<path d="M0 0 C0.66 0 1.32 0 2 0 C2.2806549 7.75466101 2.47225003 15.50799813 2.60424805 23.26660156 C2.65931073 25.90121388 2.73418845 28.53549398 2.82983398 31.16894531 C3.68964673 55.46440269 3.68964673 55.46440269 -1.74003601 61.95452881 C-4.00449466 64.17204162 -6.49193907 66.06684969 -9 68 C-10.78592777 69.96857726 -12.37301157 72.01675024 -14 74.125 C-16.29468256 77.03553487 -17.8992049 78.93280327 -21 81 C-21.22942273 73.2267371 -21.38631292 65.45435599 -21.49438477 57.6784668 C-21.53946446 55.03718442 -21.60074813 52.39612436 -21.67895508 49.75561523 C-21.7889507 45.94459048 -21.83935299 42.13654889 -21.87890625 38.32421875 C-21.92535782 37.15606125 -21.97180939 35.98790375 -22.01966858 34.78434753 C-22.02541084 25.32063992 -18.50842121 20.61630568 -12 14 C-10.9972203 12.87863681 -9.99772771 11.75431016 -9.00390625 10.625 C-8.19824219 9.75875 -7.39257812 8.8925 -6.5625 8 C-4.12897446 5.37986608 -1.98525159 2.97787738 0 0 Z " fill="#E1C47F" transform="translate(374,158)"/>
<path d="M0 0 C12.87 0 25.74 0 39 0 C37.6815754 2.63684919 36.3651547 5.16314565 34.890625 7.703125 C34.26281128 8.78630005 34.26281128 8.78630005 33.62231445 9.89135742 C32.9430188 11.0588855 32.9430188 11.0588855 32.25 12.25 C31.77844482 13.06251221 31.30688965 13.87502441 30.82104492 14.7121582 C24.56467085 25.48483653 18.28217213 36.24235342 12 47 C19.59 47 27.18 47 35 47 C35 50.3 35 53.6 35 57 C21.47 57 7.94 57 -6 57 C-0.37565036 45.75130073 -0.37565036 45.75130073 2.3046875 41.1953125 C2.88863281 40.19886719 3.47257813 39.20242188 4.07421875 38.17578125 C4.96560547 36.66564453 4.96560547 36.66564453 5.875 35.125 C6.46152344 34.12597656 7.04804688 33.12695312 7.65234375 32.09765625 C8.83056268 30.09079983 10.00991202 28.08460662 11.19042969 26.07910156 C14.13994802 21.06030431 17.06912875 16.02970488 20 11 C13.4 11 6.8 11 0 11 C0 7.37 0 3.74 0 0 Z " fill="#E1C686" transform="translate(228,396)"/>
<path d="M0 0 C3.71772715 1.43912019 3.71772715 1.43912019 4.90234375 3.79296875 C5 6 5 6 3.2265625 8.19140625 C2.36804688 8.97386719 1.50953125 9.75632813 0.625 10.5625 C-3.00288648 14.00873987 -6.31747122 17.46222344 -9.4375 21.375 C-13.56375839 26.53830032 -17.95199481 31.38288994 -22.44140625 36.2265625 C-25.08010979 39.08683657 -27.64262354 42.00144346 -30.19140625 44.94140625 C-32.4301125 47.4895665 -34.71410212 49.99410593 -37 52.5 C-40.45643771 56.29009082 -43.86843854 60.11056033 -47.23046875 63.984375 C-49.25114956 66.28607764 -51.31312618 68.54764379 -53.375 70.8125 C-56.48528851 74.25378205 -59.46478312 77.76321298 -62.375 81.375 C-65.61951621 85.38825176 -68.98735238 89.2242692 -72.5 93 C-77.5864672 98.46954841 -82.32109907 104.17715936 -87 110 C-88.65800479 112.00746716 -90.32789048 114.00425638 -92 116 C-96.75 114.125 -96.75 114.125 -99 113 C-97.70809268 110.20941937 -96.30263565 107.98932093 -94.27734375 105.6796875 C-93.74334961 105.06706055 -93.20935547 104.45443359 -92.65917969 103.82324219 C-92.09102539 103.18032227 -91.52287109 102.53740234 -90.9375 101.875 C-90.35258789 101.20629883 -89.76767578 100.53759766 -89.16503906 99.84863281 C-85.89405492 96.11780685 -82.5861592 92.42272748 -79.25 88.75 C-76.2992512 85.49989987 -73.49702373 82.17382667 -70.75 78.75 C-66.65478075 73.68109226 -62.2766543 68.94643238 -57.81103516 64.20776367 C-53.64298481 59.76000716 -49.79614139 55.14837721 -45.984375 50.390625 C-43.69744901 47.63550944 -41.24200143 45.15166193 -38.671875 42.6640625 C-36.26994197 40.27335346 -34.08145686 37.71597561 -31.8671875 35.15234375 C-26.03428974 28.42864779 -19.9897566 21.8913522 -13.96386719 15.34106445 C-10.7294379 11.81723282 -7.55667403 8.24713356 -4.4375 4.62109375 C-3.01449184 3.0163427 -1.53215479 1.5002349 0 0 Z " fill="#825C28" transform="translate(249,148)"/>
<path d="M0 0 C121.11 0 242.22 0 367 0 C367 56.76 367 113.52 367 172 C366.67 172 366.34 172 366 172 C366 115.9 366 59.8 366 2 C185.82 2.495 185.82 2.495 2 3 C1.67 53.16 1.34 103.32 1 155 C0.67 155 0.34 155 0 155 C0 103.85 0 52.7 0 0 Z " fill="#DBC48C" transform="translate(64,22)"/>
<path d="M0 0 C1.40066444 0.00553076 1.40066444 0.00553076 2.82962513 0.01117325 C3.90234669 0.00567459 4.97506824 0.00017593 6.08029652 -0.00548935 C7.25705448 0.00889175 8.43381245 0.02327286 9.64622974 0.03808975 C10.88537128 0.03750565 12.12451283 0.03692154 13.40120411 0.03631973 C16.80005854 0.03863098 20.19794411 0.05870578 23.596627 0.08661556 C27.14802913 0.11160148 30.69944383 0.11396898 34.2509203 0.11871719 C40.9764373 0.13115531 47.70169457 0.16398797 54.42709714 0.20411515 C62.08357441 0.24880706 69.74006401 0.27081336 77.39663923 0.29089689 C93.14706011 0.33272008 108.8972218 0.40308808 124.64745045 0.49219131 C124.64745045 3.13219131 124.64745045 5.77219131 124.64745045 8.49219131 C81.08745045 8.49219131 37.52745045 8.49219131 -7.35254955 8.49219131 C-3.46937891 0.72585003 -3.46937891 0.72585003 0 0 Z " fill="#926E3D" transform="translate(252.35254955291748,306.50780868530273)"/>
<path d="M0 0 C4.35184648 2.51476307 7.45610243 5.43541015 9.51953125 10.078125 C10.4226498 16.21180515 10.09839632 21.9450402 6.89453125 27.3515625 C3.51145176 31.5996339 -0.07259758 33.72105224 -5.45703125 34.51953125 C-11.58967692 34.75540224 -15.80489418 34.40303148 -20.48046875 30.078125 C-25.4439492 24.57805207 -25.83598036 20.23225137 -25.7578125 13.0234375 C-25.38110502 9.02291022 -24.19931803 7.01162028 -21.48046875 4.078125 C-20.67609375 3.129375 -19.87171875 2.180625 -19.04296875 1.203125 C-13.88608771 -2.83840009 -5.84645993 -2.17285755 0 0 Z " fill="#040302" transform="translate(181.48046875,407.921875)"/>
<path d="M0 0 C0.33 0 0.66 0 1 0 C2.07416338 11.18493932 2.07416338 11.18493932 -0.5234375 15.57421875 C-2.26762717 17.49994652 -4.08358443 19.24903038 -6 21 C-6.33 21.66 -6.66 22.32 -7 23 C13.13 23 33.26 23 54 23 C54 25.64 54 28.28 54 31 C27.6 31 1.2 31 -26 31 C-17.90632837 20.20843783 -9.5556072 9.5556072 0 0 Z " fill="#B18F55" transform="translate(322,247)"/>
<path d="M0 0 C9.43156061 -0.11591075 18.86287562 -0.2047234 28.2949934 -0.25906086 C32.67486436 -0.28514188 37.05424762 -0.3205118 41.43383789 -0.37719727 C45.66138302 -0.43157163 49.88845943 -0.46143179 54.11632729 -0.47438622 C55.72830903 -0.48361648 57.34026545 -0.50164159 58.95204735 -0.52865028 C61.21232664 -0.56501547 63.47067585 -0.56994264 65.73120117 -0.56762695 C67.01693527 -0.57873001 68.30266937 -0.58983307 69.62736511 -0.60127258 C73.87008331 0.15511826 75.36422241 1.66353459 78 5 C78 5.66 78 6.32 78 7 C78.66 7 79.32 7 80 7 C80 7.66 80 8.32 80 9 C70.45542374 9.16236709 60.91132454 9.28665692 51.36566734 9.3626852 C46.93289706 9.39918018 42.50107322 9.44865916 38.06884766 9.52807617 C33.78938155 9.60427398 29.5108242 9.64601839 25.23073196 9.6641407 C23.59996866 9.67705056 21.96925378 9.70226233 20.33887863 9.7401104 C7.58159558 10.02441713 7.58159558 10.02441713 3.63067627 7.46536255 C1.49198629 5.06673183 0 3.27723959 0 0 Z " fill="#E1C585" transform="translate(167,119)"/>
<path d="M0 0 C11 0 11 0 13.6484375 1.94140625 C14.21820313 2.80636719 14.78796875 3.67132813 15.375 4.5625 C16.00148437 5.47257812 16.62796875 6.38265625 17.2734375 7.3203125 C17.84320313 8.20460938 18.41296875 9.08890625 19 10 C19.99545861 11.31594772 20.99476277 12.62900684 22 13.9375 C24 17 24 17 24 20 C26.31 20 28.62 20 31 20 C30.01 20.33 29.02 20.66 28 21 C28 21.99 28 22.98 28 24 C27.34 24 26.68 24 26 24 C26 24.66 26 25.32 26 26 C17.42 26 8.84 26 0 26 C0 17.42 0 8.84 0 0 Z " fill="#E6C784" transform="translate(139,119)"/>
<path d="M0 0 C0 20.79 0 41.58 0 63 C-2.97 63 -5.94 63 -9 63 C-9.2038515 55.63557562 -9.34335852 48.27188566 -9.43945312 40.90527344 C-9.47953538 38.40271823 -9.53401809 35.90034862 -9.60351562 33.3984375 C-9.70123427 29.78859564 -9.74608156 26.18124159 -9.78125 22.5703125 C-9.82254028 21.46261505 -9.86383057 20.3549176 -9.90637207 19.21365356 C-9.91076859 11.49857404 -7.9375991 7.50525842 -2.82019043 1.74557495 C-1 0 -1 0 0 0 Z " fill="#DBBE7C" transform="translate(343,196)"/>
<path d="M0 0 C0.18571613 7.71890575 0.32768392 15.43757881 0.41449738 23.15821266 C0.45617547 26.74381274 0.51265448 30.32787992 0.60351562 33.91259766 C0.69072672 37.37515574 0.73832964 40.83624424 0.75901794 44.29981613 C0.78090055 46.2577952 0.84331222 48.21518605 0.90637207 50.17227173 C0.91077242 58.91687423 0.91077242 58.91687423 -1.83422852 62.18133545 C-3.83052219 63.69176016 -5.74832297 64.91441275 -8 66 C-8.16264422 58.42864028 -8.28679666 50.85746302 -8.3626852 43.28475094 C-8.39912149 39.76773541 -8.44848563 36.25192034 -8.52807617 32.7355957 C-8.61913655 28.68689894 -8.65273198 24.63945019 -8.68359375 20.58984375 C-8.71972275 19.33541977 -8.75585175 18.08099579 -8.79307556 16.78855896 C-8.79572027 10.88256999 -8.78502102 7.00908747 -4.51977539 2.65063477 C-1.34180432 0 -1.34180432 0 0 0 Z " fill="#855C28" transform="translate(395,135)"/>
<path d="M0 0 C3.16773947 1.19537339 5.28002773 2.12351202 7.4375 4.75 C8.29639139 8.18556555 7.89872468 10.58484621 7 14 C4.5 16.875 4.5 16.875 2 19 C1.67 19.33 1.34 19.66 1 20 C-3.06218109 20.39059434 -5.30352594 20.43336164 -8.8125 18.25 C-12.21387283 14.75144509 -12.21387283 14.75144509 -13 12 C-12.92225715 7.72414311 -12.39465123 5.54554729 -9.875 2.0625 C-6.21574426 -0.56261825 -4.42442241 -0.62097157 0 0 Z " fill="#DAC38C" transform="translate(213,474)"/>
<path d="M0 0 C0.85889832 -0.00058411 1.71779663 -0.00116821 2.60272217 -0.00177002 C5.43836038 0.00101411 8.27294413 0.03212139 11.10839844 0.06347656 C13.07565741 0.07093779 15.04292381 0.07663128 17.01019287 0.08062744 C22.18563389 0.09589307 27.36062521 0.13518307 32.53588867 0.17944336 C37.81780921 0.22037591 43.09980248 0.23863416 48.38183594 0.25878906 C58.74401258 0.30167627 69.1058556 0.36993901 79.46777344 0.45410156 C79.46777344 1.11410156 79.46777344 1.77410156 79.46777344 2.45410156 C77.84285225 2.46290092 77.84285225 2.46290092 76.18510437 2.47187805 C65.9876037 2.52903418 55.79031774 2.60175831 45.5930357 2.68981647 C40.35020667 2.73458783 35.10745658 2.77382895 29.86450195 2.80053711 C24.80691806 2.82650269 19.74963682 2.86685695 14.69223976 2.91728783 C12.76053436 2.9340023 10.82877657 2.94548796 8.8970089 2.95171547 C6.19590732 2.9613069 3.49558807 2.98930593 0.79467773 3.02172852 C-0.00805069 3.02029343 -0.81077911 3.01885834 -1.63783264 3.01737976 C-6.14389782 3.09412675 -7.20067914 3.12255414 -10.53222656 6.45410156 C19.82777344 6.78410156 50.18777344 7.11410156 81.46777344 7.45410156 C82.12777344 6.13410156 82.78777344 4.81410156 83.46777344 3.45410156 C84.45777344 3.94910156 84.45777344 3.94910156 85.46777344 4.45410156 C84.545578 6.42572021 84.545578 6.42572021 82.46777344 8.45410156 C79.39889614 9.07407211 76.34354149 8.95827729 73.22290039 8.90820312 C71.80309875 8.90907928 71.80309875 8.90907928 70.35461426 8.90997314 C67.2213899 8.90718314 64.08911314 8.87604744 60.95605469 8.84472656 C58.7855837 8.83726745 56.61510598 8.83157296 54.44462585 8.82757568 C48.72831674 8.81229352 43.01241332 8.77298914 37.29626465 8.72875977 C31.4648182 8.68786291 25.63330629 8.66957659 19.80175781 8.64941406 C8.35691798 8.60649765 -3.08762057 8.53821486 -14.53222656 8.45410156 C-11.39812693 1.14120242 -7.67234416 -0.13647369 0 0 Z " fill="#806539" transform="translate(139.5322265625,306.5458984375)"/>
<path d="M0 0 C0 12.54 0 25.08 0 38 C-6 41 -6 41 -8 41 C-8.17367998 36.12550911 -8.30035478 31.25283603 -8.38452148 26.37597656 C-8.4196197 24.71908177 -8.46731347 23.0624022 -8.52807617 21.40625 C-9.02125369 7.61385676 -9.02125369 7.61385676 -6.44580078 3.54394531 C-2.36953447 0 -2.36953447 0 0 0 Z " fill="#734D1E" transform="translate(395,212)"/>
<path d="M0 0 C10.98214286 -0.66964286 10.98214286 -0.66964286 14.6875 2.0625 C17 5 17 5 17.625 8.5 C16.8942789 12.59203814 15.97405648 14.12832907 13 17 C8.5791491 17.66739899 4.4960002 17.22480001 0 17 C0 11.39 0 5.78 0 0 Z " fill="#0E0C09" transform="translate(91,407)"/>
<path d="M0 0 C1.65 0 3.3 0 5 0 C5 2.31 5 4.62 5 7 C6.98 7 8.96 7 11 7 C11 4.69 11 2.38 11 0 C12.98 0 14.96 0 17 0 C17 6.6 17 13.2 17 20 C15.35 20 13.7 20 12 20 C12 17.69 12 15.38 12 13 C9.69 13 7.38 13 5 13 C5 15.31 5 17.62 5 20 C3.35 20 1.7 20 0 20 C0 13.4 0 6.8 0 0 Z " fill="#C9B582" transform="translate(253,474)"/>
<path d="M0 0 C2.5 1.5 2.5 1.5 4 3 C3.34 4.32 2.68 5.64 2 7 C0.700625 6.814375 -0.59875 6.62875 -1.9375 6.4375 C-4.08575543 6.1018371 -4.08575543 6.1018371 -6 6 C-7.34404775 7.11836224 -7.34404775 7.11836224 -7.125 10 C-7.34404775 12.88163776 -7.34404775 12.88163776 -6 14 C-4.33382885 14.04063832 -2.66611905 14.042721 -1 14 C-0.67 13.34 -0.34 12.68 0 12 C-0.99 12 -1.98 12 -3 12 C-3 10.68 -3 9.36 -3 8 C-0.03 8 2.94 8 6 8 C6.35671933 11.83473284 6.29771416 13.55342875 4.125 16.8125 C1.42055063 19.59649199 0.57733296 19.93464155 -3.3125 20.375 C-7.90598187 19.90786625 -9.11447985 18.47959782 -12 15 C-12.33 14.67 -12.66 14.34 -13 14 C-13.68235945 9.28197181 -13.64102506 5.98156962 -11 1.9375 C-6.86023598 -0.7360976 -4.87541421 -0.61910022 0 0 Z " fill="#DAC390" transform="translate(336,474)"/>
<path d="M0 0 C2.47412934 2.1957736 3.57916306 3.99239924 4.60546875 7.125 C4.86650391 7.91390625 5.12753906 8.7028125 5.39648438 9.515625 C5.65751953 10.33546875 5.91855469 11.1553125 6.1875 12 C6.46013672 12.81984375 6.73277344 13.6396875 7.01367188 14.484375 C9 20.57777256 9 20.57777256 9 24 C3.39 24 -2.22 24 -8 24 C-6.875 16.125 -6.875 16.125 -5.37109375 12.59765625 C-5.05849609 11.85322266 -4.74589844 11.10878906 -4.42382812 10.34179688 C-4.09833984 9.58962891 -3.77285156 8.83746094 -3.4375 8.0625 C-3.10814453 7.28326172 -2.77878906 6.50402344 -2.43945312 5.70117188 C-1.63366651 3.79764697 -0.81785783 1.89836975 0 0 Z " fill="#16130E" transform="translate(386,412)"/>
<path d="M0 0 C1.65 0 3.3 0 5 0 C5 6.6 5 13.2 5 20 C3.35 20 1.7 20 0 20 C-1.80078125 18.1015625 -1.80078125 18.1015625 -3.3125 15.625 C-3.82425781 14.81289063 -4.33601563 14.00078125 -4.86328125 13.1640625 C-6 11 -6 11 -6 9 C-6.66 9 -7.32 9 -8 9 C-8 12.3 -8 15.6 -8 19 C-9.32 19 -10.64 19 -12 19 C-12 13.06 -12 7.12 -12 1 C-7 1 -7 1 -5.19921875 2.75 C-4.70035156 3.4925 -4.20148438 4.235 -3.6875 5 C-3.17574219 5.7425 -2.66398437 6.485 -2.13671875 7.25 C-1.76160156 7.8275 -1.38648438 8.405 -1 9 C-0.67 6.03 -0.34 3.06 0 0 Z " fill="#DDC896" transform="translate(308,474)"/>
<path d="M0 0 C0.66 0 1.32 0 2 0 C3.17461555 3.10121711 4.33830456 6.20642241 5.5 9.3125 C5.83386719 10.19357422 6.16773438 11.07464844 6.51171875 11.98242188 C6.82753906 12.82998047 7.14335937 13.67753906 7.46875 14.55078125 C7.90864258 15.72120972 7.90864258 15.72120972 8.35742188 16.9152832 C9 19 9 19 9 22 C3.39 22 -2.22 22 -8 22 C-7.3418836 18.70941801 -6.77220346 16.09837452 -5.625 13.046875 C-5.36203125 12.345625 -5.0990625 11.644375 -4.828125 10.921875 C-4.41820312 9.84679687 -4.41820312 9.84679687 -4 8.75 C-3.72671875 8.0178125 -3.4534375 7.285625 -3.171875 6.53125 C-1.13225446 1.13225446 -1.13225446 1.13225446 0 0 Z " fill="#0D0B08" transform="translate(311,413)"/>
<path d="M0 0 C3.26780169 0.41495894 5.24608438 0.70572292 7.9375 2.5 C7.6075 3.82 7.2775 5.14 6.9375 6.5 C4.89572704 6.5 2.85386472 6.47832729 0.8125 6.4375 C-1.95924453 6.1662207 -1.95924453 6.1662207 -3.0625 7.5 C-3.3125773 9.95809998 -3.3125773 9.95809998 -3.0625 12.5 C-2.4025 13.16 -1.7425 13.82 -1.0625 14.5 C1.36688689 14.14767793 1.36688689 14.14767793 3.9375 13.5 C5.2575 13.5 6.5775 13.5 7.9375 13.5 C7.9375 17.5 7.9375 17.5 6.375 19.25 C2.86531496 21.04983848 0.83485293 21.1719574 -3.0625 20.5 C-6.96012473 17.60876415 -8.83331696 14.68758485 -9.75 9.9375 C-8.61404696 4.25773478 -6.10845631 0.17126513 0 0 Z " fill="#EAD08E" transform="translate(161.0625,473.5)"/>
<path d="M0 0 C2.475 0.99 2.475 0.99 5 2 C5 2.99 5 3.98 5 5 C2.06950651 6.46524674 -0.5670717 6.14679233 -3.8359375 6.17578125 C-5.22397348 6.19898034 -6.61199437 6.22309772 -8 6.24804688 C-10.1879282 6.28315389 -12.37530104 6.31250185 -14.56347656 6.32592773 C-16.6758138 6.34142457 -18.78652985 6.38163867 -20.8984375 6.42578125 C-22.79601807 6.44765503 -22.79601807 6.44765503 -24.73193359 6.4699707 C-28.54047088 6.76075885 -28.54047088 6.76075885 -32 11 C1.66 11.495 1.66 11.495 36 12 C36 12.33 36 12.66 36 13 C12.24 13 -11.52 13 -36 13 C-34.18562019 9.37124038 -32.88261442 6.81345323 -30 4 C-27.26463085 3.48218166 -25.12587287 3.27762801 -22.390625 3.29296875 C-21.66381531 3.27784744 -20.93700562 3.26272614 -20.18817139 3.24714661 C-17.87513167 3.20428432 -15.56339719 3.19543412 -13.25 3.1875 C-11.67835075 3.16435419 -10.10673252 3.13898865 -8.53515625 3.11132812 C-4.6899889 3.04849166 -0.84563542 3.01614483 3 3 C2.01 2.01 1.02 1.02 0 0 Z " fill="#967B4F" transform="translate(176,284)"/>
<path d="M0 0 C5.61 0 11.22 0 17 0 C17 1.65 17 3.3 17 5 C15.02 5 13.04 5 11 5 C11 9.62 11 14.24 11 19 C9.35 19 7.7 19 6 19 C6 14.71 6 10.42 6 6 C4.02 6 2.04 6 0 6 C0 4.02 0 2.04 0 0 Z " fill="#D4BE88" transform="translate(227,474)"/>
<path d="M0 0 C3.96 0 7.92 0 12 0 C12 3.96 12 7.92 12 12 C8.04 12 4.08 12 0 12 C0 8.04 0 4.08 0 0 Z " fill="#EFD792" transform="translate(327,39)"/>
<path d="M0 0 C3.96 0 7.92 0 12 0 C12 3.96 12 7.92 12 12 C8.04 12 4.08 12 0 12 C0 8.04 0 4.08 0 0 Z " fill="#D5BA7A" transform="translate(286,39)"/>
<path d="M0 0 C3.96 0 7.92 0 12 0 C12 3.96 12 7.92 12 12 C8.04 12 4.08 12 0 12 C0 8.04 0 4.08 0 0 Z " fill="#A3814D" transform="translate(404,39)"/>
<path d="M0 0 C3.96 0 7.92 0 12 0 C12 3.96 12 7.92 12 12 C8.04 12 4.08 12 0 12 C0 8.04 0 4.08 0 0 Z " fill="#A98D52" transform="translate(346,39)"/>
<path d="M0 0 C3.96 0 7.92 0 12 0 C12 3.96 12 7.92 12 12 C8.04 12 4.08 12 0 12 C0 8.04 0 4.08 0 0 Z " fill="#DCBF80" transform="translate(266,39)"/>
<path d="M0 0 C3.96 0 7.92 0 12 0 C12 3.96 12 7.92 12 12 C8.04 12 4.08 12 0 12 C0 8.04 0 4.08 0 0 Z " fill="#B08F53" transform="translate(137,39)"/>
<path d="M0 0 C3.96 0 7.92 0 12 0 C12 3.96 12 7.92 12 12 C8.04 12 4.08 12 0 12 C0 8.04 0 4.08 0 0 Z " fill="#AB8850" transform="translate(98,39)"/>
<path d="M0 0 C3.96 0 7.92 0 12 0 C12 3.96 12 7.92 12 12 C8.04 12 4.08 12 0 12 C0 8.04 0 4.08 0 0 Z " fill="#AE884E" transform="translate(79,39)"/>
<path d="M0 0 C4.29 0 8.58 0 13 0 C13 3.63 13 7.26 13 11 C8.71 11 4.42 11 0 11 C0 7.37 0 3.74 0 0 Z " fill="#8C6938" transform="translate(155,344)"/>
<path d="M0 0 C4.29 0 8.58 0 13 0 C13 3.63 13 7.26 13 11 C8.71 11 4.42 11 0 11 C0 7.37 0 3.74 0 0 Z " fill="#846536" transform="translate(136,344)"/>
<path d="M0 0 C4.29 0 8.58 0 13 0 C13 3.63 13 7.26 13 11 C8.71 11 4.42 11 0 11 C0 7.37 0 3.74 0 0 Z " fill="#AC8F59" transform="translate(306,39)"/>
<path d="M0 0 C3.96 0 7.92 0 12 0 C12 3.63 12 7.26 12 11 C8.04 11 4.08 11 0 11 C0 7.37 0 3.74 0 0 Z " fill="#957139" transform="translate(327,344)"/>
<path d="M0 0 C3.96 0 7.92 0 12 0 C12 3.63 12 7.26 12 11 C8.04 11 4.08 11 0 11 C0 7.37 0 3.74 0 0 Z " fill="#936F3B" transform="translate(384,344)"/>
<path d="M0 0 C3.96 0 7.92 0 12 0 C12 3.63 12 7.26 12 11 C8.04 11 4.08 11 0 11 C0 7.37 0 3.74 0 0 Z " fill="#906F3D" transform="translate(365,344)"/>
<path d="M0 0 C3.96 0 7.92 0 12 0 C12 3.63 12 7.26 12 11 C8.04 11 4.08 11 0 11 C0 7.37 0 3.74 0 0 Z " fill="#957340" transform="translate(346,344)"/>
<path d="M0 0 C3.96 0 7.92 0 12 0 C12 3.63 12 7.26 12 11 C8.04 11 4.08 11 0 11 C0 7.37 0 3.74 0 0 Z " fill="#95723C" transform="translate(98,344)"/>
<path d="M0 0 C3.96 0 7.92 0 12 0 C12 3.63 12 7.26 12 11 C8.04 11 4.08 11 0 11 C0 7.37 0 3.74 0 0 Z " fill="#8E6F3C" transform="translate(79,344)"/>
<path d="M0 0 C3.96 0 7.92 0 12 0 C12 3.63 12 7.26 12 11 C8.04 11 4.08 11 0 11 C0 7.37 0 3.74 0 0 Z " fill="#95713D" transform="translate(79,323)"/>
<path d="M0 0 C3.63 0 7.26 0 11 0 C11 3.96 11 7.92 11 12 C7.37 12 3.74 12 0 12 C0 8.04 0 4.08 0 0 Z " fill="#E1CA8A" transform="translate(247,39)"/>
<path d="M0 0 C1.32 0 2.64 0 4 0 C4 4.29 4 8.58 4 13 C7.63 13 11.26 13 15 13 C15 14.65 15 16.3 15 18 C10.05 18 5.1 18 0 18 C0 12.06 0 6.12 0 0 Z " fill="#EED691" transform="translate(179,475)"/>
<path d="M0 0 C0.66 0.66 1.32 1.32 2 2 C1.01 2.99 0.02 3.98 -1 5 C29.36 5.33 59.72 5.66 91 6 C91.66 4.68 92.32 3.36 93 2 C93.99 2.495 93.99 2.495 95 3 C94.07780457 4.97161865 94.07780457 4.97161865 92 7 C88.93112271 7.61997055 85.87576806 7.50417573 82.75512695 7.45410156 C81.33532532 7.45497772 81.33532532 7.45497772 79.88684082 7.45587158 C76.75361647 7.45308158 73.62133971 7.42194587 70.48828125 7.390625 C68.31781026 7.38316588 66.14733254 7.3774714 63.97685242 7.37347412 C58.2605433 7.35819196 52.54463989 7.31888758 46.82849121 7.2746582 C40.99704477 7.23376135 35.16553285 7.21547503 29.33398438 7.1953125 C17.88914454 7.15239609 6.44460599 7.0841133 -5 7 C-3.64062915 4.1394109 -2.35479531 2.14072301 0 0 Z " fill="#917044" transform="translate(130,308)"/>
<path d="M0 0 C3.63 0 7.26 0 11 0 C11 3.63 11 7.26 11 11 C7.37 11 3.74 11 0 11 C0 7.37 0 3.74 0 0 Z " fill="#906D38" transform="translate(404,344)"/>
<path d="M0 0 C3.63 0 7.26 0 11 0 C11 3.63 11 7.26 11 11 C7.37 11 3.74 11 0 11 C0 7.37 0 3.74 0 0 Z " fill="#98743F" transform="translate(404,323)"/>
<path d="M0 0 C3.63 0 7.26 0 11 0 C11 3.63 11 7.26 11 11 C7.37 11 3.74 11 0 11 C0 7.37 0 3.74 0 0 Z " fill="#F2D48B" transform="translate(366,39)"/>
<path d="M0 0 C3.63 0 7.26 0 11 0 C11 3.63 11 7.26 11 11 C7.37 11 3.74 11 0 11 C0 7.37 0 3.74 0 0 Z " fill="#ECCF89" transform="translate(118,39)"/>
<path d="M0 0 C3.63 0 7.26 0 11 0 C11 3.63 11 7.26 11 11 C7.37 11 3.74 11 0 11 C0 7.37 0 3.74 0 0 Z " fill="#B69555" transform="translate(385,39)"/>
<path d="M0 0 C3.63 0 7.26 0 11 0 C11 3.63 11 7.26 11 11 C7.37 11 3.74 11 0 11 C0 7.37 0 3.74 0 0 Z " fill="#EDD28B" transform="translate(157,39)"/>
<path d="M0 0 C3.96 0 7.92 0 12 0 C12 3.3 12 6.6 12 10 C8.04 10 4.08 10 0 10 C0 6.7 0 3.4 0 0 Z " fill="#E2C982" transform="translate(79,61)"/>
<path d="M0 0 C3.63 0 7.26 0 11 0 C11 3.3 11 6.6 11 10 C7.37 10 3.74 10 0 10 C0 6.7 0 3.4 0 0 Z " fill="#9F7C42" transform="translate(308,345)"/>
<path d="M0 0 C3.63 0 7.26 0 11 0 C11 3.3 11 6.6 11 10 C7.37 10 3.74 10 0 10 C0 6.7 0 3.4 0 0 Z " fill="#9A733D" transform="translate(118,345)"/>
<path d="M0 0 C3.63 0 7.26 0 11 0 C11 3.3 11 6.6 11 10 C7.37 10 3.74 10 0 10 C0 6.7 0 3.4 0 0 Z " fill="#9F7C45" transform="translate(404,305)"/>
<path d="M0 0 C3.63 0 7.26 0 11 0 C11 3.3 11 6.6 11 10 C7.37 10 3.74 10 0 10 C0 6.7 0 3.4 0 0 Z " fill="#E6CE8C" transform="translate(404,61)"/>
<path d="M0 0 C3.3 0 6.6 0 10 0 C10 3.63 10 7.26 10 11 C6.7 11 3.4 11 0 11 C0 7.37 0 3.74 0 0 Z " fill="#EED493" transform="translate(176,39)"/>
<path d="M0 0 C0.28875 0.61875 0.5775 1.2375 0.875 1.875 C1.93720042 4.13325765 1.93720042 4.13325765 4 6 C7.58343976 6.16677282 7.58343976 6.16677282 11 6 C11.33 4.02 11.66 2.04 12 0 C12.99 0.33 13.98 0.66 15 1 C15.8125 3.1875 15.8125 3.1875 16 6 C13.625 8.75 13.625 8.75 11 11 C10.67 11.33 10.34 11.66 10 12 C5.87590386 12.39654771 3.67510915 12.42561229 0.125 10.1875 C-2 8 -2 8 -3 5 C-1.5625 2.3125 -1.5625 2.3125 0 0 Z " fill="#E7D096" transform="translate(204,482)"/>
<path d="M0 0 C0 3 0 3 -1.46801758 5.26049805 C-3.35604701 8.63668581 -3.42685271 10.97911302 -3.51171875 14.83203125 C-3.54716797 16.12431641 -3.58261719 17.41660156 -3.61914062 18.74804688 C-3.64223681 20.10285934 -3.66501935 21.45767718 -3.6875 22.8125 C-3.72069761 24.18688117 -3.75518953 25.56123171 -3.79101562 26.93554688 C-3.87341264 30.29028234 -3.94259395 33.64475904 -4 37 C-2.35 35.68 -0.7 34.36 1 33 C1.66 33.33 2.32 33.66 3 34 C1.88200014 35.33920838 0.75538103 36.67122556 -0.375 38 C-1.31472656 39.11375 -1.31472656 39.11375 -2.2734375 40.25 C-2.84320313 40.8275 -3.41296875 41.405 -4 42 C-4.66 42 -5.32 42 -6 42 C-6.1238722 36.96469037 -6.21446514 31.93027303 -6.2746582 26.89379883 C-6.29975714 25.18172755 -6.33384429 23.46976296 -6.37719727 21.75805664 C-6.43805739 19.29286355 -6.46625432 16.82909015 -6.48828125 14.36328125 C-6.51408768 13.60163162 -6.5398941 12.83998199 -6.56648254 12.05525208 C-6.56863689 7.94587664 -6.20185317 6.24210799 -3.53198242 3.03979492 C-2.69642822 2.3666626 -1.86087402 1.69353027 -1 1 C-0.67 0.67 -0.34 0.34 0 0 Z " fill="#6B4E26" transform="translate(124,260)"/>
<path d="M0 0 C3.63 0 7.26 0 11 0 C11 2.97 11 5.94 11 9 C7.37 9 3.74 9 0 9 C0 6.03 0 3.06 0 0 Z " fill="#494031" transform="translate(404,258)"/>
<path d="M0 0 C5 0 5 0 6.8125 1.6875 C8.17577792 4.34230436 8.24535485 6.05574183 8 9 C6.68 8.67 5.36 8.34 4 8 C4 11.3 4 14.6 4 18 C2.68 18 1.36 18 0 18 C0 12.06 0 6.12 0 0 Z " fill="#EDD89F" transform="translate(296,475)"/>
<path d="M0 0 C2.97 0 5.94 0 9 0 C9 3.63 9 7.26 9 11 C7.68 10.67 6.36 10.34 5 10 C3.35 10.33 1.7 10.66 0 11 C0 7.37 0 3.74 0 0 Z " fill="#191710" transform="translate(280,345)"/>
<path d="M0 0 C3.3 0 6.6 0 10 0 C10 2.64 10 5.28 10 8 C6.7 8 3.4 8 0 8 C0 5.36 0 2.72 0 0 Z " fill="#EDD08F" transform="translate(80,79)"/>
<path d="M0 0 C2.5 0.25 2.5 0.25 4.5 2.25 C4.8125 5.25 4.8125 5.25 4.5 8.25 C1.5 10.25 1.5 10.25 -1.125 9.9375 C-3.5 9.25 -3.5 9.25 -4.5 8.25 C-4.6875 5.3125 -4.6875 5.3125 -4.5 2.25 C-2.5 0.25 -2.5 0.25 0 0 Z " fill="#14100C" transform="translate(210.5,478.75)"/>
<path d="M0 0 C1.32 0 2.64 0 4 0 C4 5.94 4 11.88 4 18 C2.68 18 1.36 18 0 18 C0 12.06 0 6.12 0 0 Z " fill="#ECD59D" transform="translate(281,475)"/>
<path d="M0 0 C7.26 0 14.52 0 22 0 C22 0.33 22 0.66 22 1 C12.595 1.495 12.595 1.495 3 2 C2.67 3.32 2.34 4.64 2 6 C14.21 6 26.42 6 39 6 C39 6.33 39 6.66 39 7 C26.13 7 13.26 7 0 7 C0 4.69 0 2.38 0 0 Z " fill="#B4955F" transform="translate(139,157)"/>
<path d="M0 0 C3.43986396 0.30576569 6.52429562 1.21840647 9.8125 2.25 C9.8125 2.58 9.8125 2.91 9.8125 3.25 C6.8425 3.25 3.8725 3.25 0.8125 3.25 C0.8125 4.57 0.8125 5.89 0.8125 7.25 C1.8025 7.25 2.7925 7.25 3.8125 7.25 C3.4825 8.24 3.1525 9.23 2.8125 10.25 C0.4375 10.375 0.4375 10.375 -2.1875 10.25 C-4.1875 8.25 -4.1875 8.25 -4.4375 5.25 C-4.1435458 1.72254954 -3.65419842 0.41762268 0 0 Z " fill="#1A160F" transform="translate(332.1875,478.75)"/>
<path d="M0 0 C3.63 0 7.26 0 11 0 C11 0.99 11 1.98 11 3 C7.01803543 4.05404945 4.01804691 3.84098656 0 3 C0 2.01 0 1.02 0 0 Z M0 4 C1.98 4 3.96 4 6 4 C6 4.33 6 4.66 6 5 C7.65 5.33 9.3 5.66 11 6 C11 6.66 11 7.32 11 8 C7.37 8 3.74 8 0 8 C0 6.68 0 5.36 0 4 Z " fill="#827965" transform="translate(404,152)"/>
<path d="M0 0 C3.63 0 7.26 0 11 0 C11 1.98 11 3.96 11 6 C7.37 6 3.74 6 0 6 C0 4.02 0 2.04 0 0 Z " fill="#7D6E56" transform="translate(79,135)"/>
<path d="M0 0 C3.63 0 7.26 0 11 0 C11 1.98 11 3.96 11 6 C7.37 6 3.74 6 0 6 C0 4.02 0 2.04 0 0 Z " fill="#7B6F55" transform="translate(404,96)"/>
<path d="M0 0 C1.32 0.66 2.64 1.32 4 2 C2.63016497 5.16115776 2.0109362 5.9927092 -1 8 C-3.33199388 8.07905064 -5.66832622 8.08798769 -8 8 C-8 6.68 -8 5.36 -8 4 C-7.236875 3.896875 -6.47375 3.79375 -5.6875 3.6875 C-2.82940576 2.95635961 -1.84257115 2.23048087 0 0 Z " fill="#DBC28C" transform="translate(166,486)"/>
<path d="M0 0 C0.33 0.99 0.66 1.98 1 3 C0.26394531 3.78503906 -0.47210938 4.57007813 -1.23046875 5.37890625 C-2.21715403 6.43916683 -3.20276279 7.50042987 -4.1875 8.5625 C-4.69418213 9.1088208 -5.20086426 9.6551416 -5.72290039 10.21801758 C-8.35429082 13.08912763 -10.78424637 15.93036317 -12.9375 19.1875 C-15.14326807 22.19536555 -15.56389991 22.40460061 -19 23 C-17.60547556 19.87572891 -15.95853655 17.67753347 -13.59375 15.21484375 C-12.93246094 14.51939453 -12.27117187 13.82394531 -11.58984375 13.10742188 C-10.90019531 12.39134766 -10.21054688 11.67527344 -9.5 10.9375 C-8.13348598 9.51096153 -6.76882301 8.08264699 -5.40625 6.65234375 C-4.80103516 6.02320068 -4.19582031 5.39405762 -3.57226562 4.74584961 C-1.81506939 2.87927602 -1.81506939 2.87927602 0 0 Z " fill="#AB905A" transform="translate(238,285)"/>
<path d="M0 0 C3.63 0 7.26 0 11 0 C11 3.63 11 7.26 11 11 C7.37 11 3.74 11 0 11 C0 7.37 0 3.74 0 0 Z M1 2 C1 4.64 1 7.28 1 10 C3.64 10 6.28 10 9 10 C9 7.36 9 4.72 9 2 C6.36 2 3.72 2 1 2 Z " fill="#DDC68C" transform="translate(366,39)"/>
<path d="M0 0 C3.63 0 7.26 0 11 0 C11 1.65 11 3.3 11 5 C7.37 5 3.74 5 0 5 C0 3.35 0 1.7 0 0 Z " fill="#695C46" transform="translate(404,247)"/>
<path d="M0 0 C0.66 0.66 1.32 1.32 2 2 C1.01 2.99 0.02 3.98 -1 5 C10.22 5.33 21.44 5.66 33 6 C33 6.33 33 6.66 33 7 C20.46 7 7.92 7 -5 7 C-3.38262276 3.76524552 -2.52370777 2.29427979 0 0 Z " fill="#8D6B40" transform="translate(130,308)"/>
<path d="M0 0 C3.96 0 7.92 0 12 0 C12 3.96 12 7.92 12 12 C8.04 12 4.08 12 0 12 C0 8.04 0 4.08 0 0 Z M2 2 C1.76807135 3.51469448 1.58784762 5.03754562 1.4375 6.5625 C1.293125 8.026875 1.14875 9.49125 1 11 C4.3 11 7.6 11 11 11 C11 7.7 11 4.4 11 1 C6.20029258 0.47166284 6.20029258 0.47166284 2 2 Z " fill="#AD9E73" transform="translate(327,39)"/>
<path d="M0 0 C1.9375 0.75 1.9375 0.75 4 2 C4.75 4.125 4.75 4.125 5 6 C4.01 6 3.02 6 2 6 C2 5.01 2 4.02 2 3 C-2.48717034 6.86364295 -6.87675353 10.74790208 -11 15 C-11.66 14.67 -12.32 14.34 -13 14 C-11.02108364 11.85393535 -9.04187901 9.70813786 -7.0625 7.5625 C-6.49853516 6.95083984 -5.93457031 6.33917969 -5.35351562 5.70898438 C-4.81533203 5.12568359 -4.27714844 4.54238281 -3.72265625 3.94140625 C-3.22515869 3.40201416 -2.72766113 2.86262207 -2.21508789 2.30688477 C-1.48918929 1.52614632 -0.75381738 0.75381738 0 0 Z " fill="#745528" transform="translate(249,148)"/>
<path d="M0 0 C3.63 0 7.26 0 11 0 C11 0.99 11 1.98 11 3 C7.5980513 5.09350689 4.94727588 5.17942163 1 5 C0.67 3.35 0.34 1.7 0 0 Z " fill="#6E664C" transform="translate(79,187)"/>
<path d="M0 0 C1.32 0 2.64 0 4 0 C4 3.63 4 7.26 4 11 C2.68 11 1.36 11 0 11 C0 7.37 0 3.74 0 0 Z " fill="#856F4C" transform="translate(191,345)"/>
<path d="M0 0 C1.32 0 2.64 0 4 0 C4 3.63 4 7.26 4 11 C2.68 11 1.36 11 0 11 C0 7.37 0 3.74 0 0 Z " fill="#827252" transform="translate(273,345)"/>
<path d="M0 0 C3.63 0 7.26 0 11 0 C11 1.32 11 2.64 11 4 C7.37 4 3.74 4 0 4 C0 2.68 0 1.36 0 0 Z " fill="#8E7C57" transform="translate(404,276)"/>
<path d="M0 0 C3.63 0 7.26 0 11 0 C11 1.32 11 2.64 11 4 C7.37 4 3.74 4 0 4 C0 2.68 0 1.36 0 0 Z " fill="#85785E" transform="translate(404,258)"/>
<path d="M0 0 C3.63 0 7.26 0 11 0 C11 1.32 11 2.64 11 4 C7.37 4 3.74 4 0 4 C0 2.68 0 1.36 0 0 Z " fill="#766B4D" transform="translate(79,234)"/>
<path d="M0 0 C3.63 0 7.26 0 11 0 C11 1.32 11 2.64 11 4 C7.37 4 3.74 4 0 4 C0 2.68 0 1.36 0 0 Z " fill="#847757" transform="translate(404,83)"/>
<path d="M0 0 C1.32 0 2.64 0 4 0 C4 3.63 4 7.26 4 11 C2.68 10.67 1.36 10.34 0 10 C0 6.7 0 3.4 0 0 Z " fill="#7E6C50" transform="translate(204,345)"/>
<path d="M0 0 C3.96 0 7.92 0 12 0 C12 0.99 12 1.98 12 3 C8.04 3 4.08 3 0 3 C0 2.01 0 1.02 0 0 Z " fill="#8A8061" transform="translate(79,217)"/>
<path d="M0 0 C3.96 0 7.92 0 12 0 C12 0.99 12 1.98 12 3 C8.04 3 4.08 3 0 3 C0 2.01 0 1.02 0 0 Z " fill="#93896D" transform="translate(79,205)"/>
<path d="M0 0 C3.96 0 7.92 0 12 0 C12 0.99 12 1.98 12 3 C8.04 3 4.08 3 0 3 C0 2.01 0 1.02 0 0 Z " fill="#8E7F5E" transform="translate(79,193)"/>
<path d="M0 0 C0.99 0 1.98 0 3 0 C3 3.96 3 7.92 3 12 C2.01 12 1.02 12 0 12 C0 8.04 0 4.08 0 0 Z " fill="#A4906C" transform="translate(213,39)"/>
<path d="M0 0 C0.99 0 1.98 0 3 0 C3 3.96 3 7.92 3 12 C2.01 12 1.02 12 0 12 C0 8.04 0 4.08 0 0 Z " fill="#A49577" transform="translate(199,39)"/>
<path d="M0 0 C0.99 0 1.98 0 3 0 C3 3.96 3 7.92 3 12 C2.01 12 1.02 12 0 12 C0 8.04 0 4.08 0 0 Z " fill="#A9946C" transform="translate(206,39)"/>
<path d="M0 0 C3.63 0 7.26 0 11 0 C11.33 0.99 11.66 1.98 12 3 C8.04 3 4.08 3 0 3 C0 2.01 0 1.02 0 0 Z " fill="#A59163" transform="translate(404,295)"/>
<path d="M0 0 C3.63 0 7.26 0 11 0 C11.33 0.99 11.66 1.98 12 3 C8.04 3 4.08 3 0 3 C0 2.01 0 1.02 0 0 Z " fill="#937E5A" transform="translate(79,276)"/>
<path d="M0 0 C0.8353125 1.2065625 0.8353125 1.2065625 1.6875 2.4375 C4.21864487 5.24228216 5.32579134 5.69381595 9 6 C9 6.33 9 6.66 9 7 C2.375 8 2.375 8 -1 8 C-1.66 7.01 -2.32 6.02 -3 5 C-2.01 3.35 -1.02 1.7 0 0 Z " fill="#EAD095" transform="translate(156,483)"/>
<path d="M0 0 C0.99 0 1.98 0 3 0 C3 3.63 3 7.26 3 11 C2.01 11 1.02 11 0 11 C0 7.37 0 3.74 0 0 Z " fill="#867150" transform="translate(178,345)"/>
<path d="M0 0 C0.99 0 1.98 0 3 0 C3 3.63 3 7.26 3 11 C2.01 11 1.02 11 0 11 C0 7.37 0 3.74 0 0 Z " fill="#B49E6D" transform="translate(286,345)"/>
<path d="M0 0 C0.99 0 1.98 0 3 0 C3 3.63 3 7.26 3 11 C2.01 11 1.02 11 0 11 C0 7.37 0 3.74 0 0 Z " fill="#A78E65" transform="translate(223,345)"/>
<path d="M0 0 C0.99 0 1.98 0 3 0 C3 3.63 3 7.26 3 11 C2.01 11 1.02 11 0 11 C0 7.37 0 3.74 0 0 Z " fill="#AE9162" transform="translate(185,345)"/>
<path d="M0 0 C0.99 0 1.98 0 3 0 C3 3.63 3 7.26 3 11 C2.01 11 1.02 11 0 11 C0 7.37 0 3.74 0 0 Z " fill="#9C8C64" transform="translate(267,345)"/>
<path d="M0 0 C0.99 0 1.98 0 3 0 C3 3.63 3 7.26 3 11 C2.01 11 1.02 11 0 11 C0 7.37 0 3.74 0 0 Z " fill="#9F8A64" transform="translate(198,345)"/>
<path d="M0 0 C3.63 0 7.26 0 11 0 C11 0.99 11 1.98 11 3 C7.37 3 3.74 3 0 3 C0 2.01 0 1.02 0 0 Z " fill="#958263" transform="translate(79,300)"/>
<path d="M0 0 C3.63 0 7.26 0 11 0 C11 0.99 11 1.98 11 3 C7.37 3 3.74 3 0 3 C0 2.01 0 1.02 0 0 Z " fill="#A48969" transform="translate(79,288)"/>
<path d="M0 0 C3.63 0 7.26 0 11 0 C11 0.99 11 1.98 11 3 C7.37 3 3.74 3 0 3 C0 2.01 0 1.02 0 0 Z " fill="#B3A071" transform="translate(404,283)"/>
<path d="M0 0 C3.63 0 7.26 0 11 0 C11 0.99 11 1.98 11 3 C7.37 3 3.74 3 0 3 C0 2.01 0 1.02 0 0 Z " fill="#A28968" transform="translate(79,282)"/>
<path d="M0 0 C3.63 0 7.26 0 11 0 C11 0.99 11 1.98 11 3 C7.37 3 3.74 3 0 3 C0 2.01 0 1.02 0 0 Z " fill="#A49873" transform="translate(79,258)"/>
<path d="M0 0 C3.63 0 7.26 0 11 0 C11 0.99 11 1.98 11 3 C7.37 3 3.74 3 0 3 C0 2.01 0 1.02 0 0 Z " fill="#A19571" transform="translate(404,205)"/>
<path d="M0 0 C0.99 0.495 0.99 0.495 2 1 C1.01 1.495 1.01 1.495 0 2 C0 1.34 0 0.68 0 0 Z M-3 2 C-2.01 2.33 -1.02 2.66 0 3 C-3.3 6.3 -6.6 9.6 -10 13 C-10.66 12.67 -11.32 12.34 -12 12 C-9.03 8.7 -6.06 5.4 -3 2 Z " fill="#C6B074" transform="translate(276,205)"/>
<path d="M0 0 C3.63 0 7.26 0 11 0 C11 0.99 11 1.98 11 3 C7.37 3 3.74 3 0 3 C0 2.01 0 1.02 0 0 Z " fill="#9F906C" transform="translate(404,199)"/>
<path d="M0 0 C3.63 0 7.26 0 11 0 C11 0.99 11 1.98 11 3 C7.37 3 3.74 3 0 3 C0 2.01 0 1.02 0 0 Z " fill="#988C6F" transform="translate(79,199)"/>
<path d="M0 0 C3.63 0 7.26 0 11 0 C11 0.99 11 1.98 11 3 C7.37 3 3.74 3 0 3 C0 2.01 0 1.02 0 0 Z " fill="#9D9475" transform="translate(404,187)"/>
<path d="M0 0 C3.63 0 7.26 0 11 0 C11 0.99 11 1.98 11 3 C7.37 3 3.74 3 0 3 C0 2.01 0 1.02 0 0 Z " fill="#94886C" transform="translate(79,175)"/>
<path d="M0 0 C3.63 0 7.26 0 11 0 C11 0.99 11 1.98 11 3 C7.37 3 3.74 3 0 3 C0 2.01 0 1.02 0 0 Z " fill="#958568" transform="translate(79,163)"/>
<path d="M0 0 C3.63 0 7.26 0 11 0 C11 0.99 11 1.98 11 3 C7.37 3 3.74 3 0 3 C0 2.01 0 1.02 0 0 Z " fill="#8D856A" transform="translate(404,145)"/>
<path d="M0 0 C3.63 0 7.26 0 11 0 C11 0.99 11 1.98 11 3 C7.37 3 3.74 3 0 3 C0 2.01 0 1.02 0 0 Z " fill="#AC9471" transform="translate(79,145)"/>
<path d="M0 0 C3.63 0 7.26 0 11 0 C11 0.99 11 1.98 11 3 C7.37 3 3.74 3 0 3 C0 2.01 0 1.02 0 0 Z " fill="#B1A68B" transform="translate(404,118)"/>
<path d="M0 0 C3.63 0 7.26 0 11 0 C11 0.99 11 1.98 11 3 C7.37 3 3.74 3 0 3 C0 2.01 0 1.02 0 0 Z " fill="#90866E" transform="translate(404,112)"/>
<path d="M0 0 C3.63 0 7.26 0 11 0 C11 0.99 11 1.98 11 3 C7.37 3 3.74 3 0 3 C0 2.01 0 1.02 0 0 Z " fill="#AA9D78" transform="translate(404,106)"/>
<path d="M0 0 C3.3 0 6.6 0 10 0 C10 0.99 10 1.98 10 3 C6.37 3 2.74 3 -1 3 C-0.67 2.01 -0.34 1.02 0 0 Z " fill="#908461" transform="translate(80,264)"/>
<path d="M0 0 C0.99 0 1.98 0 3 0 C3 3.3 3 6.6 3 10 C2.01 10 1.02 10 0 10 C0 6.7 0 3.4 0 0 Z " fill="#AD9A72" transform="translate(280,345)"/>
<path d="M0 0 C0.99 0 1.98 0 3 0 C3 3.3 3 6.6 3 10 C2.01 10 1.02 10 0 10 C0 6.7 0 3.4 0 0 Z " fill="#BAA271" transform="translate(292,345)"/>
<path d="M0 0 C0.99 0 1.98 0 3 0 C3 3.3 3 6.6 3 10 C2.01 10 1.02 10 0 10 C0 6.7 0 3.4 0 0 Z " fill="#AC976C" transform="translate(248,345)"/>
<path d="M0 0 C0.99 0 1.98 0 3 0 C3 3.3 3 6.6 3 10 C2.01 10 1.02 10 0 10 C0 6.7 0 3.4 0 0 Z " fill="#B09B74" transform="translate(229,345)"/>
<path d="M0 0 C0.99 0 1.98 0 3 0 C3 3.3 3 6.6 3 10 C2.01 10 1.02 10 0 10 C0 6.7 0 3.4 0 0 Z " fill="#C3A673" transform="translate(217,345)"/>
<path d="M0 0 C0.99 0 1.98 0 3 0 C3 3.3 3 6.6 3 10 C2.01 10 1.02 10 0 10 C0 6.7 0 3.4 0 0 Z " fill="#BDA272" transform="translate(211,345)"/>
<path d="M0 0 C0.33 0.66 0.66 1.32 1 2 C-0.10281127 3.27200971 -1.20730769 4.54255853 -2.3125 5.8125 C-2.92738281 6.52019531 -3.54226563 7.22789062 -4.17578125 7.95703125 C-5.73334335 9.70136739 -7.32658875 11.36778041 -9 13 C-9.66 12.67 -10.32 12.34 -11 12 C-7.37 8.04 -3.74 4.08 0 0 Z " fill="#B59C69" transform="translate(261,260)"/>
<path d="M0 0 C0.33 0.99 0.66 1.98 1 3 C-1.97 6.3 -4.94 9.6 -8 13 C-8.66 12.67 -9.32 12.34 -10 12 C-9.36191406 11.30132812 -8.72382813 10.60265625 -8.06640625 9.8828125 C-7.24011719 8.97273437 -6.41382813 8.06265625 -5.5625 7.125 C-4.73878906 6.22007812 -3.91507813 5.31515625 -3.06640625 4.3828125 C-0.99092058 2.18862073 -0.99092058 2.18862073 0 0 Z " fill="#755627" transform="translate(197,205)"/>
<path d="M0 0 C0.66 0.33 1.32 0.66 2 1 C-1.3 4.63 -4.6 8.26 -8 12 C-8.66 11.67 -9.32 11.34 -10 11 C-8.52116808 9.35386588 -7.04192523 7.70810092 -5.5625 6.0625 C-4.73878906 5.14597656 -3.91507812 4.22945312 -3.06640625 3.28515625 C-1 1 -1 1 0 0 Z " fill="#CBB57C" transform="translate(275,145)"/>
<path d="M0 0 C0.66 0 1.32 0 2 0 C2 3.3 2 6.6 2 10 C1.01 10 0.02 10 -1 10 C-1.125 2.25 -1.125 2.25 0 0 Z " fill="#F3D994" transform="translate(235,483)"/>
<path d="M0 0 C0.66 0.33 1.32 0.66 2 1 C-0.97 4.3 -3.94 7.6 -7 11 C-7.33 10.34 -7.66 9.68 -8 9 C-6.85459775 7.68712379 -5.70866567 6.37470979 -4.5625 5.0625 C-3.92441406 4.33160156 -3.28632813 3.60070312 -2.62890625 2.84765625 C-1.77458541 1.87860647 -0.91348825 0.91348825 0 0 Z " fill="#D4BD82" transform="translate(350,154)"/>
<path d="M0 0 C0.99 0.33 1.98 0.66 3 1 C1.37660195 2.70884005 -0.29319053 4.37446717 -2 6 C-2.66 6 -3.32 6 -4 6 C-4.33 6.99 -4.66 7.98 -5 9 C-5.66 8.67 -6.32 8.34 -7 8 C-4.69 5.36 -2.38 2.72 0 0 Z " fill="#AC8D5C" transform="translate(217,274)"/>
<path d="M0 0 C0.33 0.99 0.66 1.98 1 3 C-1.64 5.64 -4.28 8.28 -7 11 C-7.66 10.67 -8.32 10.34 -9 10 C-6.03 6.7 -3.06 3.4 0 0 Z " fill="#BDA96F" transform="translate(216,211)"/>
<path d="M0 0 C0.33 0.99 0.66 1.98 1 3 C-0.62339805 4.70884005 -2.29319053 6.37446717 -4 8 C-4.66 8 -5.32 8 -6 8 C-4.55746343 4.63408134 -2.66735273 2.48952921 0 0 Z " fill="#997F4F" transform="translate(225,300)"/>
<path d="M0 0 C0.66 0.99 1.32 1.98 2 3 C-0.31 5.31 -2.62 7.62 -5 10 C-5 6.60406522 -4.47834052 5.93380119 -2.5 3.3125 C-2.0359375 2.68988281 -1.571875 2.06726563 -1.09375 1.42578125 C-0.7328125 0.95527344 -0.371875 0.48476562 0 0 Z " fill="#84663B" transform="translate(297,248)"/>
<path d="M0 0 C0.33 0.99 0.66 1.98 1 3 C-0.65 4.65 -2.3 6.3 -4 8 C-4.99 7.67 -5.98 7.34 -7 7 C-4.69 4.69 -2.38 2.38 0 0 Z " fill="#C7B17A" transform="translate(321,153)"/>
<path d="M0 0 C2.01822917 0.06510417 4.03645833 0.13020833 6.0546875 0.1953125 C6.0546875 0.5253125 6.0546875 0.8553125 6.0546875 1.1953125 C4.9615625 1.2778125 3.8684375 1.3603125 2.7421875 1.4453125 C-0.97975193 1.81541549 -0.97975193 1.81541549 -2.7578125 4.2578125 C-3.345625 5.216875 -3.345625 5.216875 -3.9453125 6.1953125 C-4.6053125 6.1953125 -5.2653125 6.1953125 -5.9453125 6.1953125 C-3.20430126 0.32171699 -3.20430126 0.32171699 0 0 Z " fill="#CFBA84" transform="translate(158.9453125,473.8046875)"/>
<path d="M0 0 C0.66 0.66 1.32 1.32 2 2 C0.1875 4.5 0.1875 4.5 -2 7 C-2.99 7 -3.98 7 -5 7 C-3.70700306 4.11562221 -2.34058637 2.12780579 0 0 Z " fill="#85643B" transform="translate(130,308)"/>
<path d="M0 0 C0.33 0.99 0.66 1.98 1 3 C-0.98 4.98 -2.96 6.96 -5 9 C-5.66 8.67 -6.32 8.34 -7 8 C-4.69 5.36 -2.38 2.72 0 0 Z " fill="#20170E" transform="translate(307,248)"/>
<path d="M0 0 C-1.28519565 2.86697492 -2.57129254 4.97607712 -5 7 C-5.66 7 -6.32 7 -7 7 C-3.86206897 0 -3.86206897 0 0 0 Z " fill="#896C41" transform="translate(157,197)"/>
<path d="M0 0 C0 3.90838866 -1.50567876 5.11594107 -4 8 C-4.99 7.67 -5.98 7.34 -7 7 C-4.69 4.69 -2.38 2.38 0 0 Z " fill="#BEAB75" transform="translate(312,163)"/>
<path d="M0 0 C0 3.90838866 -1.50567876 5.11594107 -4 8 C-4.99 7.67 -5.98 7.34 -7 7 C-4.69 4.69 -2.38 2.38 0 0 Z " fill="#7D623B" transform="translate(128,227)"/>
<path d="M0 0 C0.33 0 0.66 0 1 0 C1 2.64 1 5.28 1 8 C1.99 8.33 2.98 8.66 4 9 C2.68 9.99 1.36 10.98 0 12 C0 8.04 0 4.08 0 0 Z " fill="#DABE7B" transform="translate(119,205)"/>
<path d="M0 0 C0 3 0 3 -2.5 5.6875 C-3.325 6.450625 -4.15 7.21375 -5 8 C-5.66 7.67 -6.32 7.34 -7 7 C-4.69 4.69 -2.38 2.38 0 0 Z " fill="#B39E6B" transform="translate(311,197)"/>
<path d="M0 0 C0.99 0.33 1.98 0.66 3 1 C1.35 2.65 -0.3 4.3 -2 6 C-2.99 5.67 -3.98 5.34 -5 5 C-3.35 3.35 -1.7 1.7 0 0 Z " fill="#C8B57A" transform="translate(295,152)"/>
<path d="M0 0 C0.33 0.99 0.66 1.98 1 3 C-1.1875 5.0625 -1.1875 5.0625 -4 7 C-6.8125 6.75 -6.8125 6.75 -9 6 C-9 5.67 -9 5.34 -9 5 C-8.071875 4.9175 -7.14375 4.835 -6.1875 4.75 C-2.91490121 4.29742448 -2.91490121 4.29742448 -1.125 1.9375 C-0.75375 1.298125 -0.3825 0.65875 0 0 Z " fill="#D2BD83" transform="translate(384,114)"/>
<path d="M0 0 C0.99 0.33 1.98 0.66 3 1 C3 2.65 3 4.3 3 6 C1.68 5.67 0.36 5.34 -1 5 C-0.67 3.35 -0.34 1.7 0 0 Z " fill="#EFD59C" transform="translate(324,480)"/>
<path d="M0 0 C0 3 0 3 -2.5 5.6875 C-3.325 6.450625 -4.15 7.21375 -5 8 C-5.66 7.67 -6.32 7.34 -7 7 C-4.69 4.69 -2.38 2.38 0 0 Z " fill="#B4A472" transform="translate(337,168)"/>
<path d="M0 0 C1.32 0.33 2.64 0.66 4 1 C3.01 1 2.02 1 1 1 C0.7525 1.61875 0.505 2.2375 0.25 2.875 C-1.20628639 5.35068687 -2.37812506 5.95125002 -5 7 C-3.35 4.69 -1.7 2.38 0 0 Z " fill="#CAB37B" transform="translate(293,119)"/>
</svg>
